<?xml version="1.0" encoding="UTF-8" standalone="no"?>
<!DOCTYPE svg PUBLIC "-//W3C//DTD SVG 1.1//EN"
 "http://www.w3.org/Graphics/SVG/1.1/DTD/svg11.dtd">
<!-- Generated by graphviz version 6.0.1 (20220911.1526)
 -->
<!-- Title: partition_diagram Pages: 1 -->
<svg width="812pt" height="1391pt"
 viewBox="0.00 0.00 812.00 1391.00" xmlns="http://www.w3.org/2000/svg" xmlns:xlink="http://www.w3.org/1999/xlink">
<g id="graph0" class="graph" transform="scale(1 1) rotate(0) translate(4 1387)">
<title>partition_diagram</title>
<polygon fill="white" stroke="none" points="-4,4 -4,-1387 808,-1387 808,4 -4,4"/>
<!-- node_000002b989f75fd0 -->
<g id="node1" class="node">
<title>node_000002b989f75fd0</title>
<polygon fill="none" stroke="black" points="330,-1290.5 330,-1382.5 404,-1382.5 404,-1290.5 330,-1290.5"/>
<text text-anchor="middle" x="367" y="-1367.3" font-family="Times New Roman,serif" font-size="14.00">part: 1</text>
<polyline fill="none" stroke="black" points="330,-1359.5 404,-1359.5"/>
<text text-anchor="middle" x="367" y="-1344.3" font-family="Times New Roman,serif" font-size="14.00">children: 6</text>
<polyline fill="none" stroke="black" points="330,-1336.5 404,-1336.5"/>
<text text-anchor="middle" x="367" y="-1321.3" font-family="Times New Roman,serif" font-size="14.00">id_limit: 0</text>
<polyline fill="none" stroke="black" points="330,-1313.5 404,-1313.5"/>
<text text-anchor="middle" x="367" y="-1298.3" font-family="Times New Roman,serif" font-size="14.00">id_mod: 0</text>
</g>
<!-- node_000002b989f75fe8 -->
<g id="node2" class="node">
<title>node_000002b989f75fe8</title>
<polygon fill="none" stroke="black" points="330,-1161.5 330,-1253.5 804,-1253.5 804,-1161.5 330,-1161.5"/>
<text text-anchor="middle" x="367" y="-1238.3" font-family="Times New Roman,serif" font-size="14.00">part: 1</text>
<polyline fill="none" stroke="black" points="330,-1230.5 404,-1230.5"/>
<text text-anchor="middle" x="367" y="-1215.3" font-family="Times New Roman,serif" font-size="14.00">children: 5</text>
<polyline fill="none" stroke="black" points="330,-1207.5 404,-1207.5"/>
<text text-anchor="middle" x="367" y="-1192.3" font-family="Times New Roman,serif" font-size="14.00">id_limit: 0</text>
<polyline fill="none" stroke="black" points="330,-1184.5 404,-1184.5"/>
<text text-anchor="middle" x="367" y="-1169.3" font-family="Times New Roman,serif" font-size="14.00">id_mod: 0</text>
<polyline fill="none" stroke="black" points="404,-1161.5 404,-1253.5"/>
<text text-anchor="middle" x="444" y="-1238.3" font-family="Times New Roman,serif" font-size="14.00">part: 2</text>
<polyline fill="none" stroke="black" points="404,-1230.5 484,-1230.5"/>
<text text-anchor="middle" x="444" y="-1215.3" font-family="Times New Roman,serif" font-size="14.00">children: 4</text>
<polyline fill="none" stroke="black" points="404,-1207.5 484,-1207.5"/>
<text text-anchor="middle" x="444" y="-1192.3" font-family="Times New Roman,serif" font-size="14.00">id_limit: 30</text>
<polyline fill="none" stroke="black" points="404,-1184.5 484,-1184.5"/>
<text text-anchor="middle" x="444" y="-1169.3" font-family="Times New Roman,serif" font-size="14.00">id_mod: 15</text>
<polyline fill="none" stroke="black" points="484,-1161.5 484,-1253.5"/>
<text text-anchor="middle" x="524" y="-1238.3" font-family="Times New Roman,serif" font-size="14.00">part: 3</text>
<polyline fill="none" stroke="black" points="484,-1230.5 564,-1230.5"/>
<text text-anchor="middle" x="524" y="-1215.3" font-family="Times New Roman,serif" font-size="14.00">children: 2</text>
<polyline fill="none" stroke="black" points="484,-1207.5 564,-1207.5"/>
<text text-anchor="middle" x="524" y="-1192.3" font-family="Times New Roman,serif" font-size="14.00">id_limit: 37</text>
<polyline fill="none" stroke="black" points="484,-1184.5 564,-1184.5"/>
<text text-anchor="middle" x="524" y="-1169.3" font-family="Times New Roman,serif" font-size="14.00">id_mod: 24</text>
<polyline fill="none" stroke="black" points="564,-1161.5 564,-1253.5"/>
<text text-anchor="middle" x="604" y="-1238.3" font-family="Times New Roman,serif" font-size="14.00">part: 4</text>
<polyline fill="none" stroke="black" points="564,-1230.5 644,-1230.5"/>
<text text-anchor="middle" x="604" y="-1215.3" font-family="Times New Roman,serif" font-size="14.00">children: 1</text>
<polyline fill="none" stroke="black" points="564,-1207.5 644,-1207.5"/>
<text text-anchor="middle" x="604" y="-1192.3" font-family="Times New Roman,serif" font-size="14.00">id_limit: 39</text>
<polyline fill="none" stroke="black" points="564,-1184.5 644,-1184.5"/>
<text text-anchor="middle" x="604" y="-1169.3" font-family="Times New Roman,serif" font-size="14.00">id_mod: 29</text>
<polyline fill="none" stroke="black" points="644,-1161.5 644,-1253.5"/>
<text text-anchor="middle" x="684" y="-1238.3" font-family="Times New Roman,serif" font-size="14.00">part: 5</text>
<polyline fill="none" stroke="black" points="644,-1230.5 724,-1230.5"/>
<text text-anchor="middle" x="684" y="-1215.3" font-family="Times New Roman,serif" font-size="14.00">children: 1</text>
<polyline fill="none" stroke="black" points="644,-1207.5 724,-1207.5"/>
<text text-anchor="middle" x="684" y="-1192.3" font-family="Times New Roman,serif" font-size="14.00">id_limit: 40</text>
<polyline fill="none" stroke="black" points="644,-1184.5 724,-1184.5"/>
<text text-anchor="middle" x="684" y="-1169.3" font-family="Times New Roman,serif" font-size="14.00">id_mod: 34</text>
<polyline fill="none" stroke="black" points="724,-1161.5 724,-1253.5"/>
<text text-anchor="middle" x="764" y="-1238.3" font-family="Times New Roman,serif" font-size="14.00">part: 10</text>
<polyline fill="none" stroke="black" points="724,-1230.5 804,-1230.5"/>
<text text-anchor="middle" x="764" y="-1215.3" font-family="Times New Roman,serif" font-size="14.00">children: 0</text>
<polyline fill="none" stroke="black" points="724,-1207.5 804,-1207.5"/>
<text text-anchor="middle" x="764" y="-1192.3" font-family="Times New Roman,serif" font-size="14.00">id_limit: 41</text>
<polyline fill="none" stroke="black" points="724,-1184.5 804,-1184.5"/>
<text text-anchor="middle" x="764" y="-1169.3" font-family="Times New Roman,serif" font-size="14.00">id_mod: 41</text>
</g>
<!-- node_000002b989f75fd0&#45;&gt;node_000002b989f75fe8 -->
<g id="edge1" class="edge">
<title>node_000002b989f75fd0:of0&#45;&gt;node_000002b989f75fe8:if0</title>
<path fill="none" stroke="black" d="M405,-1301.5C410.13,-1301.5 406.2,-1294.64 404,-1290 395.93,-1273 376.2,-1275.1 369.37,-1263.74"/>
<polygon fill="black" stroke="black" points="372.77,-1262.89 367,-1254 365.97,-1264.54 372.77,-1262.89"/>
</g>
<!-- node_000002b989f76078 -->
<g id="node3" class="node">
<title>node_000002b989f76078</title>
<polygon fill="none" stroke="black" points="186,-1032.5 186,-1124.5 580,-1124.5 580,-1032.5 186,-1032.5"/>
<text text-anchor="middle" x="223" y="-1109.3" font-family="Times New Roman,serif" font-size="14.00">part: 1</text>
<polyline fill="none" stroke="black" points="186,-1101.5 260,-1101.5"/>
<text text-anchor="middle" x="223" y="-1086.3" font-family="Times New Roman,serif" font-size="14.00">children: 5</text>
<polyline fill="none" stroke="black" points="186,-1078.5 260,-1078.5"/>
<text text-anchor="middle" x="223" y="-1063.3" font-family="Times New Roman,serif" font-size="14.00">id_limit: 0</text>
<polyline fill="none" stroke="black" points="186,-1055.5 260,-1055.5"/>
<text text-anchor="middle" x="223" y="-1040.3" font-family="Times New Roman,serif" font-size="14.00">id_mod: 0</text>
<polyline fill="none" stroke="black" points="260,-1032.5 260,-1124.5"/>
<text text-anchor="middle" x="300" y="-1109.3" font-family="Times New Roman,serif" font-size="14.00">part: 2</text>
<polyline fill="none" stroke="black" points="260,-1101.5 340,-1101.5"/>
<text text-anchor="middle" x="300" y="-1086.3" font-family="Times New Roman,serif" font-size="14.00">children: 3</text>
<polyline fill="none" stroke="black" points="260,-1078.5 340,-1078.5"/>
<text text-anchor="middle" x="300" y="-1063.3" font-family="Times New Roman,serif" font-size="14.00">id_limit: 22</text>
<polyline fill="none" stroke="black" points="260,-1055.5 340,-1055.5"/>
<text text-anchor="middle" x="300" y="-1040.3" font-family="Times New Roman,serif" font-size="14.00">id_mod: 11</text>
<polyline fill="none" stroke="black" points="340,-1032.5 340,-1124.5"/>
<text text-anchor="middle" x="380" y="-1109.3" font-family="Times New Roman,serif" font-size="14.00">part: 3</text>
<polyline fill="none" stroke="black" points="340,-1101.5 420,-1101.5"/>
<text text-anchor="middle" x="380" y="-1086.3" font-family="Times New Roman,serif" font-size="14.00">children: 2</text>
<polyline fill="none" stroke="black" points="340,-1078.5 420,-1078.5"/>
<text text-anchor="middle" x="380" y="-1063.3" font-family="Times New Roman,serif" font-size="14.00">id_limit: 26</text>
<polyline fill="none" stroke="black" points="340,-1055.5 420,-1055.5"/>
<text text-anchor="middle" x="380" y="-1040.3" font-family="Times New Roman,serif" font-size="14.00">id_mod: 17</text>
<polyline fill="none" stroke="black" points="420,-1032.5 420,-1124.5"/>
<text text-anchor="middle" x="460" y="-1109.3" font-family="Times New Roman,serif" font-size="14.00">part: 4</text>
<polyline fill="none" stroke="black" points="420,-1101.5 500,-1101.5"/>
<text text-anchor="middle" x="460" y="-1086.3" font-family="Times New Roman,serif" font-size="14.00">children: 1</text>
<polyline fill="none" stroke="black" points="420,-1078.5 500,-1078.5"/>
<text text-anchor="middle" x="460" y="-1063.3" font-family="Times New Roman,serif" font-size="14.00">id_limit: 28</text>
<polyline fill="none" stroke="black" points="420,-1055.5 500,-1055.5"/>
<text text-anchor="middle" x="460" y="-1040.3" font-family="Times New Roman,serif" font-size="14.00">id_mod: 22</text>
<polyline fill="none" stroke="black" points="500,-1032.5 500,-1124.5"/>
<text text-anchor="middle" x="540" y="-1109.3" font-family="Times New Roman,serif" font-size="14.00">part: 9</text>
<polyline fill="none" stroke="black" points="500,-1101.5 580,-1101.5"/>
<text text-anchor="middle" x="540" y="-1086.3" font-family="Times New Roman,serif" font-size="14.00">children: 0</text>
<polyline fill="none" stroke="black" points="500,-1078.5 580,-1078.5"/>
<text text-anchor="middle" x="540" y="-1063.3" font-family="Times New Roman,serif" font-size="14.00">id_limit: 29</text>
<polyline fill="none" stroke="black" points="500,-1055.5 580,-1055.5"/>
<text text-anchor="middle" x="540" y="-1040.3" font-family="Times New Roman,serif" font-size="14.00">id_mod: 29</text>
</g>
<!-- node_000002b989f75fe8&#45;&gt;node_000002b989f76078 -->
<g id="edge2" class="edge">
<title>node_000002b989f75fe8:of0&#45;&gt;node_000002b989f76078:if0</title>
<path fill="none" stroke="black" d="M367,-1161C367,-1098.9 239.38,-1180.28 224.43,-1134.99"/>
<polygon fill="black" stroke="black" points="227.88,-1134.41 223,-1125 220.95,-1135.39 227.88,-1134.41"/>
</g>
<!-- node_000002b989f760f0 -->
<g id="node4" class="node">
<title>node_000002b989f760f0</title>
<polygon fill="none" stroke="black" points="53,-903.5 53,-995.5 445,-995.5 445,-903.5 53,-903.5"/>
<text text-anchor="middle" x="90" y="-980.3" font-family="Times New Roman,serif" font-size="14.00">part: 1</text>
<polyline fill="none" stroke="black" points="53,-972.5 127,-972.5"/>
<text text-anchor="middle" x="90" y="-957.3" font-family="Times New Roman,serif" font-size="14.00">children: 4</text>
<polyline fill="none" stroke="black" points="53,-949.5 127,-949.5"/>
<text text-anchor="middle" x="90" y="-934.3" font-family="Times New Roman,serif" font-size="14.00">id_limit: 0</text>
<polyline fill="none" stroke="black" points="53,-926.5 127,-926.5"/>
<text text-anchor="middle" x="90" y="-911.3" font-family="Times New Roman,serif" font-size="14.00">id_mod: 0</text>
<polyline fill="none" stroke="black" points="127,-903.5 127,-995.5"/>
<text text-anchor="middle" x="166" y="-980.3" font-family="Times New Roman,serif" font-size="14.00">part: 2</text>
<polyline fill="none" stroke="black" points="127,-972.5 205,-972.5"/>
<text text-anchor="middle" x="166" y="-957.3" font-family="Times New Roman,serif" font-size="14.00">children: 3</text>
<polyline fill="none" stroke="black" points="127,-949.5 205,-949.5"/>
<text text-anchor="middle" x="166" y="-934.3" font-family="Times New Roman,serif" font-size="14.00">id_limit: 15</text>
<polyline fill="none" stroke="black" points="127,-926.5 205,-926.5"/>
<text text-anchor="middle" x="166" y="-911.3" font-family="Times New Roman,serif" font-size="14.00">id_mod: 8</text>
<polyline fill="none" stroke="black" points="205,-903.5 205,-995.5"/>
<text text-anchor="middle" x="245" y="-980.3" font-family="Times New Roman,serif" font-size="14.00">part: 3</text>
<polyline fill="none" stroke="black" points="205,-972.5 285,-972.5"/>
<text text-anchor="middle" x="245" y="-957.3" font-family="Times New Roman,serif" font-size="14.00">children: 1</text>
<polyline fill="none" stroke="black" points="205,-949.5 285,-949.5"/>
<text text-anchor="middle" x="245" y="-934.3" font-family="Times New Roman,serif" font-size="14.00">id_limit: 19</text>
<polyline fill="none" stroke="black" points="205,-926.5 285,-926.5"/>
<text text-anchor="middle" x="245" y="-911.3" font-family="Times New Roman,serif" font-size="14.00">id_mod: 13</text>
<polyline fill="none" stroke="black" points="285,-903.5 285,-995.5"/>
<text text-anchor="middle" x="325" y="-980.3" font-family="Times New Roman,serif" font-size="14.00">part: 4</text>
<polyline fill="none" stroke="black" points="285,-972.5 365,-972.5"/>
<text text-anchor="middle" x="325" y="-957.3" font-family="Times New Roman,serif" font-size="14.00">children: 1</text>
<polyline fill="none" stroke="black" points="285,-949.5 365,-949.5"/>
<text text-anchor="middle" x="325" y="-934.3" font-family="Times New Roman,serif" font-size="14.00">id_limit: 20</text>
<polyline fill="none" stroke="black" points="285,-926.5 365,-926.5"/>
<text text-anchor="middle" x="325" y="-911.3" font-family="Times New Roman,serif" font-size="14.00">id_mod: 16</text>
<polyline fill="none" stroke="black" points="365,-903.5 365,-995.5"/>
<text text-anchor="middle" x="405" y="-980.3" font-family="Times New Roman,serif" font-size="14.00">part: 8</text>
<polyline fill="none" stroke="black" points="365,-972.5 445,-972.5"/>
<text text-anchor="middle" x="405" y="-957.3" font-family="Times New Roman,serif" font-size="14.00">children: 0</text>
<polyline fill="none" stroke="black" points="365,-949.5 445,-949.5"/>
<text text-anchor="middle" x="405" y="-934.3" font-family="Times New Roman,serif" font-size="14.00">id_limit: 21</text>
<polyline fill="none" stroke="black" points="365,-926.5 445,-926.5"/>
<text text-anchor="middle" x="405" y="-911.3" font-family="Times New Roman,serif" font-size="14.00">id_mod: 21</text>
</g>
<!-- node_000002b989f75fe8&#45;&gt;node_000002b989f760f0 -->
<g id="edge3" class="edge">
<title>node_000002b989f75fe8:of1&#45;&gt;node_000002b989f760f0:if1</title>
<path fill="none" stroke="black" d="M444,-1161C444,-1101.13 218.29,-1168.36 177,-1125 139.72,-1085.85 162.78,-1057.19 165.71,-1006.16"/>
<polygon fill="black" stroke="black" points="169.21,-1006.1 166,-996 162.21,-1005.89 169.21,-1006.1"/>
</g>
<!-- node_000002b989f76168 -->
<g id="node5" class="node">
<title>node_000002b989f76168</title>
<polygon fill="none" stroke="black" points="111,-774.5 111,-866.5 421,-866.5 421,-774.5 111,-774.5"/>
<text text-anchor="middle" x="148" y="-851.3" font-family="Times New Roman,serif" font-size="14.00">part: 1</text>
<polyline fill="none" stroke="black" points="111,-843.5 185,-843.5"/>
<text text-anchor="middle" x="148" y="-828.3" font-family="Times New Roman,serif" font-size="14.00">children: 4</text>
<polyline fill="none" stroke="black" points="111,-820.5 185,-820.5"/>
<text text-anchor="middle" x="148" y="-805.3" font-family="Times New Roman,serif" font-size="14.00">id_limit: 0</text>
<polyline fill="none" stroke="black" points="111,-797.5 185,-797.5"/>
<text text-anchor="middle" x="148" y="-782.3" font-family="Times New Roman,serif" font-size="14.00">id_mod: 0</text>
<polyline fill="none" stroke="black" points="185,-774.5 185,-866.5"/>
<text text-anchor="middle" x="224" y="-851.3" font-family="Times New Roman,serif" font-size="14.00">part: 2</text>
<polyline fill="none" stroke="black" points="185,-843.5 263,-843.5"/>
<text text-anchor="middle" x="224" y="-828.3" font-family="Times New Roman,serif" font-size="14.00">children: 2</text>
<polyline fill="none" stroke="black" points="185,-820.5 263,-820.5"/>
<text text-anchor="middle" x="224" y="-805.3" font-family="Times New Roman,serif" font-size="14.00">id_limit: 11</text>
<polyline fill="none" stroke="black" points="185,-797.5 263,-797.5"/>
<text text-anchor="middle" x="224" y="-782.3" font-family="Times New Roman,serif" font-size="14.00">id_mod: 6</text>
<polyline fill="none" stroke="black" points="263,-774.5 263,-866.5"/>
<text text-anchor="middle" x="302" y="-851.3" font-family="Times New Roman,serif" font-size="14.00">part: 3</text>
<polyline fill="none" stroke="black" points="263,-843.5 341,-843.5"/>
<text text-anchor="middle" x="302" y="-828.3" font-family="Times New Roman,serif" font-size="14.00">children: 1</text>
<polyline fill="none" stroke="black" points="263,-820.5 341,-820.5"/>
<text text-anchor="middle" x="302" y="-805.3" font-family="Times New Roman,serif" font-size="14.00">id_limit: 13</text>
<polyline fill="none" stroke="black" points="263,-797.5 341,-797.5"/>
<text text-anchor="middle" x="302" y="-782.3" font-family="Times New Roman,serif" font-size="14.00">id_mod: 9</text>
<polyline fill="none" stroke="black" points="341,-774.5 341,-866.5"/>
<text text-anchor="middle" x="381" y="-851.3" font-family="Times New Roman,serif" font-size="14.00">part: 7</text>
<polyline fill="none" stroke="black" points="341,-843.5 421,-843.5"/>
<text text-anchor="middle" x="381" y="-828.3" font-family="Times New Roman,serif" font-size="14.00">children: 0</text>
<polyline fill="none" stroke="black" points="341,-820.5 421,-820.5"/>
<text text-anchor="middle" x="381" y="-805.3" font-family="Times New Roman,serif" font-size="14.00">id_limit: 14</text>
<polyline fill="none" stroke="black" points="341,-797.5 421,-797.5"/>
<text text-anchor="middle" x="381" y="-782.3" font-family="Times New Roman,serif" font-size="14.00">id_mod: 14</text>
</g>
<!-- node_000002b989f75fe8&#45;&gt;node_000002b989f76168 -->
<g id="edge4" class="edge">
<title>node_000002b989f75fe8:of2&#45;&gt;node_000002b989f76168:if2</title>
<path fill="none" stroke="black" d="M524,-1161C524,-1127.98 572.23,-1153.45 589,-1125 609.98,-1089.39 603.46,-1070.72 589,-1032 562.43,-960.87 542.54,-941.34 477,-903 411.67,-864.78 311.9,-938.85 302.69,-877.12"/>
<polygon fill="black" stroke="black" points="306.17,-876.74 302,-867 299.19,-877.21 306.17,-876.74"/>
</g>
<!-- node_000002b989f761c8 -->
<g id="node6" class="node">
<title>node_000002b989f761c8</title>
<polygon fill="none" stroke="black" points="115,-645.5 115,-737.5 417,-737.5 417,-645.5 115,-645.5"/>
<text text-anchor="middle" x="152" y="-722.3" font-family="Times New Roman,serif" font-size="14.00">part: 1</text>
<polyline fill="none" stroke="black" points="115,-714.5 189,-714.5"/>
<text text-anchor="middle" x="152" y="-699.3" font-family="Times New Roman,serif" font-size="14.00">children: 3</text>
<polyline fill="none" stroke="black" points="115,-691.5 189,-691.5"/>
<text text-anchor="middle" x="152" y="-676.3" font-family="Times New Roman,serif" font-size="14.00">id_limit: 0</text>
<polyline fill="none" stroke="black" points="115,-668.5 189,-668.5"/>
<text text-anchor="middle" x="152" y="-653.3" font-family="Times New Roman,serif" font-size="14.00">id_mod: 0</text>
<polyline fill="none" stroke="black" points="189,-645.5 189,-737.5"/>
<text text-anchor="middle" x="226" y="-722.3" font-family="Times New Roman,serif" font-size="14.00">part: 2</text>
<polyline fill="none" stroke="black" points="189,-714.5 263,-714.5"/>
<text text-anchor="middle" x="226" y="-699.3" font-family="Times New Roman,serif" font-size="14.00">children: 2</text>
<polyline fill="none" stroke="black" points="189,-691.5 263,-691.5"/>
<text text-anchor="middle" x="226" y="-676.3" font-family="Times New Roman,serif" font-size="14.00">id_limit: 7</text>
<polyline fill="none" stroke="black" points="189,-668.5 263,-668.5"/>
<text text-anchor="middle" x="226" y="-653.3" font-family="Times New Roman,serif" font-size="14.00">id_mod: 4</text>
<polyline fill="none" stroke="black" points="263,-645.5 263,-737.5"/>
<text text-anchor="middle" x="300" y="-722.3" font-family="Times New Roman,serif" font-size="14.00">part: 3</text>
<polyline fill="none" stroke="black" points="263,-714.5 337,-714.5"/>
<text text-anchor="middle" x="300" y="-699.3" font-family="Times New Roman,serif" font-size="14.00">children: 1</text>
<polyline fill="none" stroke="black" points="263,-691.5 337,-691.5"/>
<text text-anchor="middle" x="300" y="-676.3" font-family="Times New Roman,serif" font-size="14.00">id_limit: 9</text>
<polyline fill="none" stroke="black" points="263,-668.5 337,-668.5"/>
<text text-anchor="middle" x="300" y="-653.3" font-family="Times New Roman,serif" font-size="14.00">id_mod: 7</text>
<polyline fill="none" stroke="black" points="337,-645.5 337,-737.5"/>
<text text-anchor="middle" x="377" y="-722.3" font-family="Times New Roman,serif" font-size="14.00">part: 6</text>
<polyline fill="none" stroke="black" points="337,-714.5 417,-714.5"/>
<text text-anchor="middle" x="377" y="-699.3" font-family="Times New Roman,serif" font-size="14.00">children: 0</text>
<polyline fill="none" stroke="black" points="337,-691.5 417,-691.5"/>
<text text-anchor="middle" x="377" y="-676.3" font-family="Times New Roman,serif" font-size="14.00">id_limit: 10</text>
<polyline fill="none" stroke="black" points="337,-668.5 417,-668.5"/>
<text text-anchor="middle" x="377" y="-653.3" font-family="Times New Roman,serif" font-size="14.00">id_mod: 10</text>
</g>
<!-- node_000002b989f75fe8&#45;&gt;node_000002b989f761c8 -->
<g id="edge5" class="edge">
<title>node_000002b989f75fe8:of3&#45;&gt;node_000002b989f761c8:if3</title>
<path fill="none" stroke="black" d="M604,-1161C604,-1144.85 607.89,-1141.12 609,-1125 611.85,-1083.77 617.54,-1072.44 609,-1032 576.64,-878.69 578.05,-732.9 428.1,-726.7"/>
<polygon fill="black" stroke="black" points="428.07,-723.2 418,-726.5 427.93,-730.2 428.07,-723.2"/>
</g>
<!-- node_000002b989f76228 -->
<g id="node7" class="node">
<title>node_000002b989f76228</title>
<polygon fill="none" stroke="black" points="302,-516.5 302,-608.5 524,-608.5 524,-516.5 302,-516.5"/>
<text text-anchor="middle" x="339" y="-593.3" font-family="Times New Roman,serif" font-size="14.00">part: 1</text>
<polyline fill="none" stroke="black" points="302,-585.5 376,-585.5"/>
<text text-anchor="middle" x="339" y="-570.3" font-family="Times New Roman,serif" font-size="14.00">children: 3</text>
<polyline fill="none" stroke="black" points="302,-562.5 376,-562.5"/>
<text text-anchor="middle" x="339" y="-547.3" font-family="Times New Roman,serif" font-size="14.00">id_limit: 0</text>
<polyline fill="none" stroke="black" points="302,-539.5 376,-539.5"/>
<text text-anchor="middle" x="339" y="-524.3" font-family="Times New Roman,serif" font-size="14.00">id_mod: 0</text>
<polyline fill="none" stroke="black" points="376,-516.5 376,-608.5"/>
<text text-anchor="middle" x="413" y="-593.3" font-family="Times New Roman,serif" font-size="14.00">part: 2</text>
<polyline fill="none" stroke="black" points="376,-585.5 450,-585.5"/>
<text text-anchor="middle" x="413" y="-570.3" font-family="Times New Roman,serif" font-size="14.00">children: 1</text>
<polyline fill="none" stroke="black" points="376,-562.5 450,-562.5"/>
<text text-anchor="middle" x="413" y="-547.3" font-family="Times New Roman,serif" font-size="14.00">id_limit: 5</text>
<polyline fill="none" stroke="black" points="376,-539.5 450,-539.5"/>
<text text-anchor="middle" x="413" y="-524.3" font-family="Times New Roman,serif" font-size="14.00">id_mod: 3</text>
<polyline fill="none" stroke="black" points="450,-516.5 450,-608.5"/>
<text text-anchor="middle" x="487" y="-593.3" font-family="Times New Roman,serif" font-size="14.00">part: 5</text>
<polyline fill="none" stroke="black" points="450,-585.5 524,-585.5"/>
<text text-anchor="middle" x="487" y="-570.3" font-family="Times New Roman,serif" font-size="14.00">children: 0</text>
<polyline fill="none" stroke="black" points="450,-562.5 524,-562.5"/>
<text text-anchor="middle" x="487" y="-547.3" font-family="Times New Roman,serif" font-size="14.00">id_limit: 6</text>
<polyline fill="none" stroke="black" points="450,-539.5 524,-539.5"/>
<text text-anchor="middle" x="487" y="-524.3" font-family="Times New Roman,serif" font-size="14.00">id_mod: 6</text>
</g>
<!-- node_000002b989f75fe8&#45;&gt;node_000002b989f76228 -->
<g id="edge6" class="edge">
<title>node_000002b989f75fe8:of4&#45;&gt;node_000002b989f76228:if2</title>
<path fill="none" stroke="black" d="M684,-1161C684,-1067.44 684,-1044.06 684,-950.5 684,-950.5 684,-950.5 684,-819.5 684,-701.57 648.46,-603.22 535.11,-597.74"/>
<polygon fill="black" stroke="black" points="535.08,-594.24 525,-597.5 534.91,-601.24 535.08,-594.24"/>
</g>
<!-- node_000002b989f76078&#45;&gt;node_000002b989f760f0 -->
<g id="edge7" class="edge">
<title>node_000002b989f76078:of0&#45;&gt;node_000002b989f760f0:if0</title>
<path fill="none" stroke="black" d="M223,-1032C223,-974.83 107.08,-1046.4 91.68,-1006.33"/>
<polygon fill="black" stroke="black" points="95.06,-1005.31 90,-996 88.15,-1006.43 95.06,-1005.31"/>
</g>
<!-- node_000002b989f76078&#45;&gt;node_000002b989f76168 -->
<g id="edge8" class="edge">
<title>node_000002b989f76078:of1&#45;&gt;node_000002b989f76168:if1</title>
<path fill="none" stroke="black" d="M300,-1032C300,-961.71 410.32,-1051.07 454,-996 479.69,-963.62 480.87,-934.41 454,-903 422.86,-866.61 252.25,-911.08 227.1,-876.84"/>
<polygon fill="black" stroke="black" points="230.34,-875.49 224,-867 223.67,-877.59 230.34,-875.49"/>
</g>
<!-- node_000002b989f76078&#45;&gt;node_000002b989f761c8 -->
<g id="edge9" class="edge">
<title>node_000002b989f76078:of2&#45;&gt;node_000002b989f761c8:if2</title>
<path fill="none" stroke="black" d="M380,-1032C380,-986.02 450.74,-1033.75 477,-996 533.64,-914.57 522.25,-845.98 454,-774 408.28,-725.78 311.38,-799.37 300.92,-748.18"/>
<polygon fill="black" stroke="black" points="304.39,-747.64 300,-738 297.42,-748.27 304.39,-747.64"/>
</g>
<!-- node_000002b989f76078&#45;&gt;node_000002b989f76228 -->
<g id="edge10" class="edge">
<title>node_000002b989f76078:of3&#45;&gt;node_000002b989f76228:if2</title>
<path fill="none" stroke="black" d="M460,-1032C460,-1004.98 496.31,-1019.86 509,-996 590.58,-842.55 697.97,-606.92 535.06,-597.77"/>
<polygon fill="black" stroke="black" points="535.09,-594.27 525,-597.5 534.9,-601.27 535.09,-594.27"/>
</g>
<!-- node_000002b989f760f0&#45;&gt;node_000002b989f76168 -->
<g id="edge11" class="edge">
<title>node_000002b989f760f0:of0&#45;&gt;node_000002b989f76168:if0</title>
<path fill="none" stroke="black" d="M90,-903C90,-876.93 132.83,-891.49 144.88,-876.84"/>
<polygon fill="black" stroke="black" points="148.32,-877.59 148,-867 141.64,-875.48 148.32,-877.59"/>
</g>
<!-- node_000002b989f760f0&#45;&gt;node_000002b989f761c8 -->
<g id="edge12" class="edge">
<title>node_000002b989f760f0:of1&#45;&gt;node_000002b989f761c8:if1</title>
<path fill="none" stroke="black" d="M166,-903C166,-843.79 391.06,-911.61 430,-867 457.18,-835.86 456.57,-805.67 430,-774 373.25,-706.36 237.74,-820.01 226.72,-748.25"/>
<polygon fill="black" stroke="black" points="230.19,-747.73 226,-738 223.2,-748.22 230.19,-747.73"/>
</g>
<!-- node_000002b989f760f0&#45;&gt;node_000002b989f76228 -->
<g id="edge13" class="edge">
<title>node_000002b989f760f0:of2&#45;&gt;node_000002b989f76228:if2</title>
<path fill="none" stroke="black" d="M245,-903C245,-855.87 421.41,-901.04 454,-867 531.61,-785.95 489.64,-728.07 487.12,-619.02"/>
<polygon fill="black" stroke="black" points="490.62,-618.96 487,-609 483.62,-619.04 490.62,-618.96"/>
</g>
<!-- node_000002b989f76270 -->
<g id="node8" class="node">
<title>node_000002b989f76270</title>
<polygon fill="none" stroke="black" points="0,-387.5 0,-479.5 222,-479.5 222,-387.5 0,-387.5"/>
<text text-anchor="middle" x="37" y="-464.3" font-family="Times New Roman,serif" font-size="14.00">part: 1</text>
<polyline fill="none" stroke="black" points="0,-456.5 74,-456.5"/>
<text text-anchor="middle" x="37" y="-441.3" font-family="Times New Roman,serif" font-size="14.00">children: 2</text>
<polyline fill="none" stroke="black" points="0,-433.5 74,-433.5"/>
<text text-anchor="middle" x="37" y="-418.3" font-family="Times New Roman,serif" font-size="14.00">id_limit: 0</text>
<polyline fill="none" stroke="black" points="0,-410.5 74,-410.5"/>
<text text-anchor="middle" x="37" y="-395.3" font-family="Times New Roman,serif" font-size="14.00">id_mod: 0</text>
<polyline fill="none" stroke="black" points="74,-387.5 74,-479.5"/>
<text text-anchor="middle" x="111" y="-464.3" font-family="Times New Roman,serif" font-size="14.00">part: 2</text>
<polyline fill="none" stroke="black" points="74,-456.5 148,-456.5"/>
<text text-anchor="middle" x="111" y="-441.3" font-family="Times New Roman,serif" font-size="14.00">children: 1</text>
<polyline fill="none" stroke="black" points="74,-433.5 148,-433.5"/>
<text text-anchor="middle" x="111" y="-418.3" font-family="Times New Roman,serif" font-size="14.00">id_limit: 3</text>
<polyline fill="none" stroke="black" points="74,-410.5 148,-410.5"/>
<text text-anchor="middle" x="111" y="-395.3" font-family="Times New Roman,serif" font-size="14.00">id_mod: 2</text>
<polyline fill="none" stroke="black" points="148,-387.5 148,-479.5"/>
<text text-anchor="middle" x="185" y="-464.3" font-family="Times New Roman,serif" font-size="14.00">part: 4</text>
<polyline fill="none" stroke="black" points="148,-456.5 222,-456.5"/>
<text text-anchor="middle" x="185" y="-441.3" font-family="Times New Roman,serif" font-size="14.00">children: 0</text>
<polyline fill="none" stroke="black" points="148,-433.5 222,-433.5"/>
<text text-anchor="middle" x="185" y="-418.3" font-family="Times New Roman,serif" font-size="14.00">id_limit: 4</text>
<polyline fill="none" stroke="black" points="148,-410.5 222,-410.5"/>
<text text-anchor="middle" x="185" y="-395.3" font-family="Times New Roman,serif" font-size="14.00">id_mod: 4</text>
</g>
<!-- node_000002b989f760f0&#45;&gt;node_000002b989f76270 -->
<g id="edge14" class="edge">
<title>node_000002b989f760f0:of3&#45;&gt;node_000002b989f76270:if2</title>
<path fill="none" stroke="black" d="M325,-903C325,-852.8 134.54,-905.22 102,-867 93.06,-856.5 100.21,-668.8 106,-645 124.4,-569.4 179.94,-561.85 184.68,-490.07"/>
<polygon fill="black" stroke="black" points="188.18,-490.11 185,-480 181.18,-489.88 188.18,-490.11"/>
</g>
<!-- node_000002b989f76168&#45;&gt;node_000002b989f761c8 -->
<g id="edge15" class="edge">
<title>node_000002b989f76168:of0&#45;&gt;node_000002b989f761c8:if0</title>
<path fill="none" stroke="black" d="M148,-774C148,-761.93 150.25,-756.77 151.38,-748.15"/>
<polygon fill="black" stroke="black" points="154.88,-748.2 152,-738 147.89,-747.77 154.88,-748.2"/>
</g>
<!-- node_000002b989f76168&#45;&gt;node_000002b989f76228 -->
<g id="edge16" class="edge">
<title>node_000002b989f76168:of1&#45;&gt;node_000002b989f76228:if1</title>
<path fill="none" stroke="black" d="M224,-774C224,-682.81 367.45,-807.91 426,-738 452.54,-706.31 433.13,-685.71 426,-645 423.75,-632.17 417.33,-627.86 414.44,-618.9"/>
<polygon fill="black" stroke="black" points="417.9,-618.39 413,-609 410.97,-619.4 417.9,-618.39"/>
</g>
<!-- node_000002b989f76168&#45;&gt;node_000002b989f76270 -->
<g id="edge17" class="edge">
<title>node_000002b989f76168:of2&#45;&gt;node_000002b989f76270:if2</title>
<path fill="none" stroke="black" d="M302,-774C302,-685.43 162.69,-806.05 106,-738 88.25,-716.69 110.46,-525.88 117,-516 133.58,-490.93 173.54,-508.54 182.98,-489.95"/>
<polygon fill="black" stroke="black" points="186.44,-490.5 185,-480 179.58,-489.1 186.44,-490.5"/>
</g>
<!-- node_000002b989f761c8&#45;&gt;node_000002b989f76228 -->
<g id="edge18" class="edge">
<title>node_000002b989f761c8:of0&#45;&gt;node_000002b989f76228:if0</title>
<path fill="none" stroke="black" d="M152,-645C152,-587.61 222.23,-629.05 276,-609 283.34,-606.26 286.52,-602.31 291.07,-599.83"/>
<polygon fill="black" stroke="black" points="292.06,-603.19 301,-597.5 290.47,-596.37 292.06,-603.19"/>
</g>
<!-- node_000002b989f761c8&#45;&gt;node_000002b989f76270 -->
<g id="edge19" class="edge">
<title>node_000002b989f761c8:of1&#45;&gt;node_000002b989f76270:if1</title>
<path fill="none" stroke="black" d="M226,-645C226,-559.1 119.81,-568.47 111.51,-490.02"/>
<polygon fill="black" stroke="black" points="115.01,-489.81 111,-480 108.02,-490.17 115.01,-489.81"/>
</g>
<!-- node_000002b989f762b8 -->
<g id="node9" class="node">
<title>node_000002b989f762b8</title>
<polygon fill="none" stroke="black" points="75,-258.5 75,-350.5 223,-350.5 223,-258.5 75,-258.5"/>
<text text-anchor="middle" x="112" y="-335.3" font-family="Times New Roman,serif" font-size="14.00">part: 1</text>
<polyline fill="none" stroke="black" points="75,-327.5 149,-327.5"/>
<text text-anchor="middle" x="112" y="-312.3" font-family="Times New Roman,serif" font-size="14.00">children: 2</text>
<polyline fill="none" stroke="black" points="75,-304.5 149,-304.5"/>
<text text-anchor="middle" x="112" y="-289.3" font-family="Times New Roman,serif" font-size="14.00">id_limit: 0</text>
<polyline fill="none" stroke="black" points="75,-281.5 149,-281.5"/>
<text text-anchor="middle" x="112" y="-266.3" font-family="Times New Roman,serif" font-size="14.00">id_mod: 0</text>
<polyline fill="none" stroke="black" points="149,-258.5 149,-350.5"/>
<text text-anchor="middle" x="186" y="-335.3" font-family="Times New Roman,serif" font-size="14.00">part: 3</text>
<polyline fill="none" stroke="black" points="149,-327.5 223,-327.5"/>
<text text-anchor="middle" x="186" y="-312.3" font-family="Times New Roman,serif" font-size="14.00">children: 0</text>
<polyline fill="none" stroke="black" points="149,-304.5 223,-304.5"/>
<text text-anchor="middle" x="186" y="-289.3" font-family="Times New Roman,serif" font-size="14.00">id_limit: 2</text>
<polyline fill="none" stroke="black" points="149,-281.5 223,-281.5"/>
<text text-anchor="middle" x="186" y="-266.3" font-family="Times New Roman,serif" font-size="14.00">id_mod: 2</text>
</g>
<!-- node_000002b989f761c8&#45;&gt;node_000002b989f762b8 -->
<g id="edge20" class="edge">
<title>node_000002b989f761c8:of2&#45;&gt;node_000002b989f762b8:if1</title>
<path fill="none" stroke="black" d="M300,-645C300,-637.18 246.18,-398.89 228.57,-348.72"/>
<polygon fill="black" stroke="black" points="231.58,-346.9 224,-339.5 225.31,-350.01 231.58,-346.9"/>
</g>
<!-- node_000002b989f76228&#45;&gt;node_000002b989f76270 -->
<g id="edge21" class="edge">
<title>node_000002b989f76228:of0&#45;&gt;node_000002b989f76270:if0</title>
<path fill="none" stroke="black" d="M301,-527.5C274.11,-527.5 80.79,-513.09 43.29,-488.38"/>
<polygon fill="black" stroke="black" points="45.8,-485.9 37,-480 40.21,-490.1 45.8,-485.9"/>
</g>
<!-- node_000002b989f76228&#45;&gt;node_000002b989f762b8 -->
<g id="edge22" class="edge">
<title>node_000002b989f76228:of1&#45;&gt;node_000002b989f762b8:if1</title>
<path fill="none" stroke="black" d="M413,-516C413,-404.55 343.35,-343.28 234.32,-339.67"/>
<polygon fill="black" stroke="black" points="234.06,-336.16 224,-339.5 233.94,-343.16 234.06,-336.16"/>
</g>
<!-- node_000002b989f76270&#45;&gt;node_000002b989f762b8 -->
<g id="edge23" class="edge">
<title>node_000002b989f76270:of0&#45;&gt;node_000002b989f762b8:if0</title>
<path fill="none" stroke="black" d="M37,-387C37,-354.21 95.97,-380.34 109.33,-360.9"/>
<polygon fill="black" stroke="black" points="112.78,-361.57 112,-351 106.02,-359.74 112.78,-361.57"/>
</g>
<!-- node_000002b989f762e8 -->
<g id="node10" class="node">
<title>node_000002b989f762e8</title>
<polygon fill="none" stroke="black" points="107,-129.5 107,-221.5 255,-221.5 255,-129.5 107,-129.5"/>
<text text-anchor="middle" x="144" y="-206.3" font-family="Times New Roman,serif" font-size="14.00">part: 1</text>
<polyline fill="none" stroke="black" points="107,-198.5 181,-198.5"/>
<text text-anchor="middle" x="144" y="-183.3" font-family="Times New Roman,serif" font-size="14.00">children: 1</text>
<polyline fill="none" stroke="black" points="107,-175.5 181,-175.5"/>
<text text-anchor="middle" x="144" y="-160.3" font-family="Times New Roman,serif" font-size="14.00">id_limit: 0</text>
<polyline fill="none" stroke="black" points="107,-152.5 181,-152.5"/>
<text text-anchor="middle" x="144" y="-137.3" font-family="Times New Roman,serif" font-size="14.00">id_mod: 0</text>
<polyline fill="none" stroke="black" points="181,-129.5 181,-221.5"/>
<text text-anchor="middle" x="218" y="-206.3" font-family="Times New Roman,serif" font-size="14.00">part: 2</text>
<polyline fill="none" stroke="black" points="181,-198.5 255,-198.5"/>
<text text-anchor="middle" x="218" y="-183.3" font-family="Times New Roman,serif" font-size="14.00">children: 0</text>
<polyline fill="none" stroke="black" points="181,-175.5 255,-175.5"/>
<text text-anchor="middle" x="218" y="-160.3" font-family="Times New Roman,serif" font-size="14.00">id_limit: 1</text>
<polyline fill="none" stroke="black" points="181,-152.5 255,-152.5"/>
<text text-anchor="middle" x="218" y="-137.3" font-family="Times New Roman,serif" font-size="14.00">id_mod: 1</text>
</g>
<!-- node_000002b989f76270&#45;&gt;node_000002b989f762e8 -->
<g id="edge24" class="edge">
<title>node_000002b989f76270:of1&#45;&gt;node_000002b989f762e8:if1</title>
<path fill="none" stroke="black" d="M111,-387C111,-330.89 198.46,-395.98 232,-351 256.71,-317.87 239.62,-298.62 232,-258 229.58,-245.08 222.66,-240.91 219.55,-231.95"/>
<polygon fill="black" stroke="black" points="222.99,-231.34 218,-222 216.08,-232.42 222.99,-231.34"/>
</g>
<!-- node_000002b989f762b8&#45;&gt;node_000002b989f762e8 -->
<g id="edge25" class="edge">
<title>node_000002b989f762b8:of0&#45;&gt;node_000002b989f762e8:if0</title>
<path fill="none" stroke="black" d="M112,-258C112,-240.77 132.72,-241.82 140.81,-231.73"/>
<polygon fill="black" stroke="black" points="144.22,-232.59 144,-222 137.56,-230.42 144.22,-232.59"/>
</g>
<!-- node_000002b989f76318 -->
<g id="node11" class="node">
<title>node_000002b989f76318</title>
<polygon fill="none" stroke="black" points="107,-0.5 107,-92.5 181,-92.5 181,-0.5 107,-0.5"/>
<text text-anchor="middle" x="144" y="-77.3" font-family="Times New Roman,serif" font-size="14.00">part: 1</text>
<polyline fill="none" stroke="black" points="107,-69.5 181,-69.5"/>
<text text-anchor="middle" x="144" y="-54.3" font-family="Times New Roman,serif" font-size="14.00">children: 0</text>
<polyline fill="none" stroke="black" points="107,-46.5 181,-46.5"/>
<text text-anchor="middle" x="144" y="-31.3" font-family="Times New Roman,serif" font-size="14.00">id_limit: 0</text>
<polyline fill="none" stroke="black" points="107,-23.5 181,-23.5"/>
<text text-anchor="middle" x="144" y="-8.3" font-family="Times New Roman,serif" font-size="14.00">id_mod: 0</text>
</g>
<!-- node_000002b989f762e8&#45;&gt;node_000002b989f76318 -->
<g id="edge26" class="edge">
<title>node_000002b989f762e8:of0&#45;&gt;node_000002b989f76318:if0</title>
<path fill="none" stroke="black" d="M144,-129C144,-117 144,-111.75 144,-103.12"/>
<polygon fill="black" stroke="black" points="147.5,-103 144,-93 140.5,-103 147.5,-103"/>
</g>
</g>
</svg>
